<?xml version="1.0" encoding="UTF-8" standalone="no"?>
<!-- Created with Inkscape (http://www.inkscape.org/) -->
<svg
   xmlns:dc="http://purl.org/dc/elements/1.1/"
   xmlns:cc="http://web.resource.org/cc/"
   xmlns:rdf="http://www.w3.org/1999/02/22-rdf-syntax-ns#"
   xmlns:svg="http://www.w3.org/2000/svg"
   xmlns="http://www.w3.org/2000/svg"
   xmlns:sodipodi="http://sodipodi.sourceforge.net/DTD/sodipodi-0.dtd"
   xmlns:inkscape="http://www.inkscape.org/namespaces/inkscape"
   width="1007.6869"
   height="528.82336"
   id="svg2"
   sodipodi:version="0.32"
   inkscape:version="0.45.1"
   version="1.0"
   sodipodi:docbase="D:\Graphics\Wiki\streamlines"
   sodipodi:docname="Streamlines _and_streamtube.svg"
   inkscape:output_extension="org.inkscape.output.svg.inkscape">
  <sodipodi:namedview
     id="base"
     pagecolor="#ffffff"
     bordercolor="#666666"
     borderopacity="1.0"
     gridtolerance="1"
     guidetolerance="10"
     objecttolerance="10.8"
     inkscape:pageopacity="0.0"
     inkscape:pageshadow="2"
     inkscape:zoom="0.49497475"
     inkscape:cx="595.33689"
     inkscape:cy="0.20683304"
     inkscape:document-units="pt"
     inkscape:current-layer="layer2"
     width="841.88975pt"
     height="595.27559pt"
     units="pt"
     gridspacingx="0.8pt"
     gridspacingy="0.8pt"
     gridanglex="24pt"
     gridanglez="24pt"
     grid_units="pt"
     inkscape:object-nodes="true"
     showgrid="false"
     inkscape:object-paths="false"
     inkscape:grid-points="false"
     inkscape:grid-bbox="false"
     inkscape:object-points="true"
     inkscape:guide-bbox="false"
     inkscape:object-bbox="false"
     inkscape:window-width="1400"
     inkscape:window-height="994"
     inkscape:window-x="-4"
     inkscape:window-y="-4" />
  <defs
     id="defs4">
    <marker
       inkscape:stockid="Arrow1Lend"
       orient="auto"
       refY="0"
       refX="0"
       id="Arrow1Lend"
       style="overflow:visible">
      <path
         id="path14967"
         d="M 0,0 L 5,-5 L -12.5,0 L 5,5 L 0,0 z "
         style="fill-rule:evenodd;stroke:#000000;stroke-width:1pt;marker-start:none"
         transform="matrix(-0.8,0,0,-0.8,-10,0)" />
    </marker>
    <marker
       inkscape:stockid="Dot_l"
       orient="auto"
       refY="0"
       refX="0"
       id="Dot_l"
       style="overflow:visible">
      <path
         id="path15026"
         d="M -2.5,-1 C -2.5,1.76 -4.74,4 -7.5,4 C -10.26,4 -12.5,1.76 -12.5,-1 C -12.5,-3.76 -10.26,-6 -7.5,-6 C -4.74,-6 -2.5,-3.76 -2.5,-1 z "
         style="fill-rule:evenodd;stroke:#000000;stroke-width:1pt;marker-start:none;marker-end:none"
         transform="matrix(0.8,0,0,0.8,5.92,0.8)" />
    </marker>
    <marker
       inkscape:stockid="Arrow2Lstart"
       orient="auto"
       refY="0"
       refX="0"
       id="Arrow2Lstart"
       style="overflow:visible">
      <path
         id="path14982"
         style="font-size:12px;fill-rule:evenodd;stroke-width:0.625;stroke-linejoin:round"
         d="M 8.7185878,4.0337352 L -2.2072895,0.016013256 L 8.7185884,-4.0017078 C 6.97309,-1.6296469 6.9831476,1.6157441 8.7185878,4.0337352 z "
         transform="matrix(1.1,0,0,1.1,1.1,0)" />
    </marker>
    <marker
       inkscape:stockid="Arrow2Lend"
       orient="auto"
       refY="0"
       refX="0"
       id="Arrow2Lend"
       style="overflow:visible">
      <path
         id="path14985"
         style="font-size:12px;fill-rule:evenodd;stroke-width:0.625;stroke-linejoin:round"
         d="M 8.7185878,4.0337352 L -2.2072895,0.016013256 L 8.7185884,-4.0017078 C 6.97309,-1.6296469 6.9831476,1.6157441 8.7185878,4.0337352 z "
         transform="matrix(-1.1,0,0,-1.1,-1.1,0)" />
    </marker>
    <marker
       inkscape:stockid="Arrow1Send"
       orient="auto"
       refY="0"
       refX="0"
       id="Arrow1Send"
       style="overflow:visible">
      <path
         id="path14979"
         d="M 0,0 L 5,-5 L -12.5,0 L 5,5 L 0,0 z "
         style="fill-rule:evenodd;stroke:#000000;stroke-width:1pt;marker-start:none"
         transform="matrix(-0.2,0,0,-0.2,-1.2,0)" />
    </marker>
    <marker
       inkscape:stockid="Arrow1Sstart"
       orient="auto"
       refY="0"
       refX="0"
       id="Arrow1Sstart"
       style="overflow:visible">
      <path
         id="path14976"
         d="M 0,0 L 5,-5 L -12.5,0 L 5,5 L 0,0 z "
         style="fill-rule:evenodd;stroke:#000000;stroke-width:1pt;marker-start:none"
         transform="matrix(0.2,0,0,0.2,1.2,0)" />
    </marker>
  </defs>
  <metadata
     id="metadata7">
    <rdf:RDF>
      <cc:Work
         rdf:about="">
        <dc:format>image/svg+xml</dc:format>
        <dc:type
           rdf:resource="http://purl.org/dc/dcmitype/StillImage" />
      </cc:Work>
    </rdf:RDF>
  </metadata>
  <g
     inkscape:groupmode="layer"
     id="layer2"
     inkscape:label="Additional"
     style="display:none"
     transform="translate(-28.588169,-79.556802)">
    <path
       style="fill:none;fill-opacity:1;stroke:none;stroke-width:1.25;stroke-miterlimit:4;stroke-opacity:1"
       d="M 957.24457,133.52034 C 970.34437,146.67502 971.14137,167.43433 965.99777,184.30735 C 964.54787,195.63786 959.58297,208.81052 947.63747,212.52798 C 934.35997,220.8657 928.56807,236.57344 916.79187,246.48444 C 909.82007,256.43906 899.01617,265.10424 886.34171,265.18007 C 874.0353,270.3405 860.83417,266.58106 849.82462,260.44822 C 838.67456,259.08917 825.93826,263.23147 816.81209,254.31711 C 807.36486,247.25108 801.2906,236.34392 798.78616,224.93712 C 792.74828,215.23232 777.61005,212.18466 776.63992,199.27853 C 778.523,181.21499 760.85056,165.63324 767.84525,147.42592 C 772.14513,133.96708 789.07581,130.31017 793.55563,116.95712 C 802.06394,103.34882 813.96261,91.283316 828.45566,84.251268 C 840.86125,81.538632 852.59295,90.095402 865.04329,87.508718 C 877.98611,87.521436 890.53159,79.179371 903.45267,83.109291 C 914.87567,87.981277 922.10347,98.791 929.43597,108.25644 C 935.41057,118.60546 942.31197,130.70652 955.21657,132.92574 L 957.24457,133.52034 L 957.24457,133.52034 z "
       id="path3282" />
  </g>
  <g
     inkscape:groupmode="layer"
     id="layer3"
     inkscape:label="Back"
     style="display:inline"
     transform="translate(-28.588169,-79.556802)">
    <path
       style="fill:none;fill-opacity:1;stroke:#008000;stroke-width:5;stroke-miterlimit:4;stroke-dasharray:20, 20;stroke-dashoffset:0;stroke-opacity:1;display:inline"
       d="M 886.34171,265.18007 C 874.0353,270.3405 860.83417,266.58106 849.82462,260.44822 C 838.67456,259.08917 825.93826,263.23147 816.81209,254.31711 C 807.36486,247.25108 801.2906,236.34392 798.78616,224.93712 C 792.74828,215.23232 777.61005,212.18466 776.63992,199.27853 C 778.523,181.21499 760.85056,165.63324 767.84525,147.42592 C 772.14513,133.96708 789.07581,130.31017 793.55563,116.95712 C 802.06394,103.34882 813.96261,91.283316 828.45566,84.251268"
       id="path3302" />
    <g
       id="g24978">
      <path
         d="M 52.796497,370.90269 C 514.59739,320.39045 582.05264,289.77695 767.84525,147.42592"
         sodipodi:nodetypes="cc"
         id="path2201"
         style="fill:none;fill-rule:evenodd;stroke:#404040;stroke-width:2.5;stroke-linecap:butt;stroke-linejoin:miter;stroke-miterlimit:4;stroke-dasharray:10, 10;stroke-dashoffset:0;stroke-opacity:1;display:inline" />
      <path
         d="M 50.20766,465.91145 C 503.7027,397.69143 686.8792,294.06374 776.63992,199.27853"
         sodipodi:nodetypes="cc"
         id="path2199"
         style="fill:none;fill-rule:evenodd;stroke:#404040;stroke-width:2.5;stroke-linecap:butt;stroke-linejoin:miter;stroke-miterlimit:4;stroke-dasharray:10, 10;stroke-dashoffset:0;stroke-opacity:1;display:inline" />
      <path
         d="M 95.815958,542.32894 C 497.61065,461.69203 663.0259,388.70996 816.81209,254.31711"
         sodipodi:nodetypes="cc"
         id="path2197"
         style="fill:none;fill-rule:evenodd;stroke:#404040;stroke-width:2.5;stroke-linecap:butt;stroke-linejoin:miter;stroke-miterlimit:4;stroke-dasharray:10, 10;stroke-dashoffset:0;stroke-opacity:1;display:inline" />
    </g>
  </g>
  <g
     inkscape:groupmode="layer"
     id="layer4"
     inkscape:label="front"
     style="display:inline"
     transform="translate(-28.588169,-79.556802)">
    <path
       id="path3196"
       d="M 294.28571,375.21933 C 285.86113,392.99664 286.3854,414.1919 294.34406,431.94676 C 295.95009,446.68509 288.62188,461.73533 294.26975,476.12766 C 292.89054,493.18642 266.72114,490.56033 265.39637,507.67832 C 260.99306,524.47113 245.68552,534.55992 232.74747,544.57309 C 215.00709,549.68576 199.68814,534.11233 182.28258,535.64386 C 168.12239,539.51169 155.19432,547.09067 140.3426,548.58976 C 125.45815,552.09244 108.36782,552.27255 95.815958,542.32894 C 82.578345,536.41023 70.149714,523.19455 72.959285,507.69897 C 66.220011,493.02572 46.087732,485.13407 50.20766,465.91145 C 51.91409,448.61856 43.813282,431.97537 47.701637,414.92215 C 53.477712,400.35885 43.765837,384.43574 52.796497,370.90269 C 58.63703,358.71625 72.663464,355.2442 80.680746,345.29368 C 89.702242,333.79168 96.045512,319.15117 109.90199,312.51511 C 124.14855,301.66597 145.44507,310.8561 158.55602,297.6619 C 171.32454,290.20666 183.77165,301.58167 195.43342,305.77289 C 209.20147,310.87339 226.56235,300.41389 238.10191,312.41191 C 250.43462,330.51185 278.78766,326.39036 289.41806,346.27431 C 293.15154,355.53683 289.65407,366.19583 294.28571,375.21933 z "
       style="fill:none;fill-opacity:1;stroke:#008000;stroke-width:5;stroke-miterlimit:4;stroke-dasharray:none;stroke-opacity:1;display:inline" />
    <path
       style="fill:#000000;fill-opacity:0;stroke:#008000;stroke-width:5;stroke-miterlimit:4;stroke-dasharray:none;stroke-dashoffset:0;stroke-opacity:1;display:inline"
       d="M 828.45566,84.251268 C 840.86125,81.538632 852.59295,90.095402 865.04329,87.508718 C 877.98611,87.521436 890.53159,79.179371 903.4527,83.109291 C 914.87563,87.981277 922.10347,98.791002 929.43596,108.25644 C 935.41061,118.60546 942.31196,130.70652 955.21654,132.92574 L 957.24457,133.52034 L 957.24457,133.52034 C 970.34433,146.67502 971.14135,167.43433 965.99782,184.30735 C 964.54783,195.63786 959.58298,208.81052 947.63749,212.52798 C 934.36002,220.8657 928.56806,236.57344 916.7919,246.48444 C 909.8201,256.43906 898.22047,263.6273 898.22047,263.6273"
       id="path3243"
       sodipodi:nodetypes="ccccccccccc" />
    <text
       xml:space="preserve"
       style="font-size:40px;font-style:normal;font-weight:normal;fill:#008000;fill-opacity:1;stroke:none;stroke-width:1px;stroke-linecap:butt;stroke-linejoin:miter;stroke-opacity:1;display:inline;font-family:serif"
       x="27.142857"
       y="301.23734"
       id="text20055"><tspan
         sodipodi:role="line"
         id="tspan20057"
         x="27.142857"
         y="301.23734"
         dy="0 14.285715">C1</tspan></text>
    <text
       xml:space="preserve"
       style="font-size:40px;font-style:normal;font-weight:normal;fill:#008000;fill-opacity:1;stroke:none;stroke-width:1px;stroke-linecap:butt;stroke-linejoin:miter;stroke-opacity:1;display:inline;font-family:serif"
       x="991.21649"
       y="112.17021"
       id="text23963"><tspan
         sodipodi:role="line"
         id="tspan23965"
         x="991.21649"
         y="112.17021"
         dy="0 15.714287">C2</tspan></text>
  </g>
  <g
     inkscape:label="Basic"
     id="layer1"
     inkscape:groupmode="layer"
     style="display:inline"
     transform="translate(-28.588169,-79.556802)">
    <path
       d="M 238.10191,312.41191 C 564.59807,348.16973 732.90233,214.43624 903.4527,83.109291"
       sodipodi:nodetypes="cc"
       id="path2184"
       style="fill:none;fill-opacity:1;stroke:#000fff;stroke-width:2.5;stroke-miterlimit:4;stroke-dasharray:none;stroke-opacity:0.94117647" />
    <path
       style="fill:none;fill-rule:evenodd;stroke:#000fff;stroke-width:2.5;stroke-linecap:butt;stroke-linejoin:miter;stroke-miterlimit:4;stroke-dasharray:none;stroke-opacity:0.94117647"
       id="path2191"
       sodipodi:nodetypes="cc"
       d="M 294.28571,375.21933 C 567.95987,417.42375 751.92963,282.18679 955.21654,132.92574" />
    <path
       style="fill:none;fill-rule:evenodd;stroke:#000fff;stroke-width:2.5;stroke-linecap:butt;stroke-linejoin:miter;stroke-miterlimit:4;stroke-dasharray:none;stroke-opacity:0.94117647"
       id="path2193"
       sodipodi:nodetypes="cc"
       d="M 294.26975,476.12766 C 544.48639,466.29846 744.35058,361.78903 947.63749,212.52798" />
    <path
       style="fill:none;fill-rule:evenodd;stroke:#000fff;stroke-width:2.5;stroke-linecap:butt;stroke-linejoin:miter;stroke-miterlimit:4;stroke-dasharray:none;stroke-opacity:0.94117647"
       id="path2195"
       sodipodi:nodetypes="cc"
       d="M 898.22047,263.6273 C 734.93356,407.17406 504.47692,521.93942 232.74747,544.57309" />
    <path
       style="fill:none;fill-rule:evenodd;stroke:#000fff;stroke-width:2.5;stroke-linecap:butt;stroke-linejoin:miter;stroke-miterlimit:4;stroke-dasharray:none;stroke-opacity:0.94117647"
       id="path2203"
       sodipodi:nodetypes="cc"
       d="M 168.47342,293.94368 C 516.79751,297.97095 633.04769,225.11523 828.45566,84.251268" />
  </g>
  <g
     inkscape:groupmode="layer"
     id="layer5"
     inkscape:label="Flash"
     style="display:inline"
     transform="translate(-28.588169,-79.556802)">
    <g
       id="g24954"
       style="fill:#800000;fill-opacity:1">
      <path
         style="fill:#800000;fill-opacity:1;fill-rule:evenodd;stroke:none;stroke-width:2.5;stroke-linecap:butt;stroke-linejoin:miter;stroke-miterlimit:4;stroke-opacity:1"
         d="M 399.90625,530 L 232.65625,543.3125 L 232.84375,545.8125 L 400.09375,532.46875 L 399.90625,530 z "
         id="path17128" />
      <path
         d="M 372.47676,522.30391 L 403.30604,530.92956 L 374.23311,544.33147 C 378.49957,537.44741 377.76264,528.55302 372.47676,522.30391 z "
         style="font-size:12px;fill:#800000;fill-opacity:1;fill-rule:evenodd;stroke-width:0.625;stroke-linejoin:round"
         id="path24960" />
    </g>
    <g
       id="g24970"
       style="fill:#800000;fill-opacity:1">
      <path
         style="fill:#800000;fill-opacity:1;fill-rule:evenodd;stroke:none;stroke-width:2.5;stroke-linecap:butt;stroke-linejoin:miter;stroke-miterlimit:4;stroke-opacity:1;display:inline"
         d="M 712.15625,412.9375 L 519.1875,483.4375 L 520.0625,485.78125 L 713.03125,415.3125 L 712.15625,412.9375 z "
         id="path19070" />
      <path
         d="M 683.68855,412.87487 L 715.70169,412.9451 L 691.26954,433.63123 C 693.54043,425.85718 690.45261,417.48349 683.68855,412.87487 z "
         style="font-size:12px;fill:#800000;fill-opacity:1;fill-rule:evenodd;stroke-width:0.625;stroke-linejoin:round"
         id="path24976" />
    </g>
    <g
       id="g24962"
       style="fill:#800000;fill-opacity:1">
      <path
         style="fill:#800000;fill-opacity:1;fill-rule:evenodd;stroke:none;stroke-width:2.5;stroke-linecap:butt;stroke-linejoin:miter;stroke-miterlimit:4;stroke-opacity:1;display:inline"
         d="M 902,272.8125 L 794.75,343.28125 L 796.125,345.375 L 903.375,274.90625 L 902,272.8125 z "
         id="path19072" />
      <path
         d="M 874.27319,279.26198 L 905.45073,271.99511 L 886.40843,297.72909 C 886.83762,289.64152 881.91327,282.19814 874.27319,279.26198 z "
         style="font-size:12px;fill:#800000;fill-opacity:1;fill-rule:evenodd;stroke-width:0.625;stroke-linejoin:round"
         id="path24968" />
    </g>
    <text
       xml:space="preserve"
       style="font-size:40px;font-style:normal;font-weight:normal;fill:#800000;fill-opacity:1;stroke:none;stroke-width:1px;stroke-linecap:butt;stroke-linejoin:miter;stroke-opacity:1;font-family:serif"
       x="277.14285"
       y="588.38019"
       id="text23947"><tspan
         sodipodi:role="line"
         id="tspan23949"
         x="277.14285"
         y="588.38019"
         dy="0 20.000002">v1</tspan></text>
    <text
       xml:space="preserve"
       style="font-size:40px;font-style:normal;font-weight:normal;fill:#800000;fill-opacity:1;stroke:none;stroke-width:1px;stroke-linecap:butt;stroke-linejoin:miter;stroke-opacity:1;display:inline;font-family:serif"
       x="639.41827"
       y="488.03983"
       id="text23967"><tspan
         sodipodi:role="line"
         id="tspan23969"
         x="639.41827"
         y="488.03983"
         dy="0 22.857145">v2</tspan></text>
    <text
       xml:space="preserve"
       style="font-size:40px;font-style:normal;font-weight:normal;fill:#800000;fill-opacity:1;stroke:none;stroke-width:1px;stroke-linecap:butt;stroke-linejoin:miter;stroke-opacity:1;display:inline;font-family:serif"
       x="900.8468"
       y="339.46838"
       id="text23971"><tspan
         sodipodi:role="line"
         id="tspan23973"
         x="900.8468"
         y="339.46838"
         dy="0 21.428574">v3</tspan></text>
  </g>
</svg>
